<?xml version="1.0"?>
<svg xmlns="http://www.w3.org/2000/svg" xmlns:xlink="http://www.w3.org/1999/xlink" xmlns:svgjs="http://svgjs.com/svgjs" version="1.1" width="512" height="512" x="0" y="0" viewBox="0 0 682.66669 682" style="enable-background:new 0 0 512 512" xml:space="preserve" class=""><g transform="matrix(1,0,0,1,25,305)"><path xmlns="http://www.w3.org/2000/svg" d="m621.25-17.25h-75c-10.355469 0-18.75 8.394531-18.75 18.75v75c0 10.355469 8.394531 18.75 18.75 18.75h75c10.355469 0 18.75-8.394531 18.75-18.75v-75c0-10.355469-8.394531-18.75-18.75-18.75zm0 0" fill="#9ede73" data-original="#000000" style="" class=""/><path xmlns="http://www.w3.org/2000/svg" d="m150 20.25h340v37.5h-340zm0 0" fill="#9ede73" data-original="#000000" style="" class=""/><path xmlns="http://www.w3.org/2000/svg" d="m93.75-17.25h-75c-10.355469 0-18.75 8.394531-18.75 18.75v75c0 10.355469 8.394531 18.75 18.75 18.75h75c10.355469 0 18.75-8.394531 18.75-18.75v-75c0-10.355469-8.394531-18.75-18.75-18.75zm0 0" fill="#9ede73" data-original="#000000" style="" class=""/></g></svg>
